<svg width="375" height="82" viewBox="0 0 375 82" fill="none" xmlns="http://www.w3.org/2000/svg">
<g filter="url(#filter0_d_8_452)">
<path d="M93.756 19.8H112.476L112.836 26.928H112.188C111.18 24.504 110.124 22.848 109.02 21.96C107.916 21.048 106.296 20.592 104.16 20.592H102.9V31.716H104.124C105.252 31.716 106.2 31.296 106.968 30.456C107.736 29.592 108.276 28.44 108.588 27H109.128V37.656H108.516C108.084 35.856 107.496 34.572 106.752 33.804C106.032 33.036 105.036 32.652 103.764 32.652H102.9V44.208H104.268C106.476 44.208 108.348 43.548 109.884 42.228C111.444 40.908 112.512 39.216 113.088 37.152H113.808L113.52 45H93.756V44.208H95.88V20.592H93.756V19.8ZM127.273 32.256H125.365V44.316H127.705V45H116.005V44.316H118.345V20.484H116.005V19.8H126.877C129.997 19.8 132.205 19.968 133.501 20.304C134.821 20.616 135.745 21 136.273 21.456C137.425 22.392 138.001 23.88 138.001 25.92C138.001 27.96 137.497 29.424 136.489 30.312C135.481 31.176 133.945 31.692 131.881 31.86V31.968C133.825 32.232 135.181 32.808 135.949 33.696C136.717 34.584 137.101 36.072 137.101 38.16V40.068C137.101 41.316 137.161 42.156 137.281 42.588C137.425 43.02 137.713 43.236 138.145 43.236C138.577 43.236 138.913 43.044 139.153 42.66C139.417 42.252 139.657 41.412 139.873 40.14L140.485 40.212C140.221 42.252 139.753 43.62 139.081 44.316C138.433 45.012 137.125 45.36 135.157 45.36C133.189 45.36 131.785 44.904 130.945 43.992C130.129 43.056 129.721 41.316 129.721 38.772V36.144C129.721 34.8 129.541 33.816 129.181 33.192C128.845 32.568 128.209 32.256 127.273 32.256ZM125.365 20.484V31.572H126.517C127.885 31.572 128.893 31.152 129.541 30.312C130.213 29.472 130.549 28.104 130.549 26.208V25.164C130.549 23.268 130.225 22.02 129.577 21.42C128.953 20.796 127.945 20.484 126.553 20.484H125.365ZM142.134 19.8H153.114V20.484H151.134V44.316H153.114V45H142.134V44.316H144.114V20.484H142.134V19.8ZM165.731 44.604C166.931 44.604 167.987 44.28 168.899 43.632C169.835 42.984 170.303 42.012 170.303 40.716C170.303 39.396 169.799 38.388 168.791 37.692C167.807 36.996 166.391 36.396 164.543 35.892C162.719 35.364 161.387 34.908 160.547 34.524C159.731 34.14 158.951 33.636 158.207 33.012C156.719 31.764 155.975 29.832 155.975 27.216C155.975 25.08 156.731 23.244 158.243 21.708C159.779 20.172 161.867 19.404 164.507 19.404C165.779 19.404 167.099 19.596 168.467 19.98C169.859 20.34 170.723 20.52 171.059 20.52C171.395 20.52 171.695 20.28 171.959 19.8H172.355L172.607 27.072H172.031C170.879 24.984 169.667 23.316 168.395 22.068C167.147 20.796 165.779 20.16 164.291 20.16C162.827 20.16 161.687 20.508 160.871 21.204C160.055 21.876 159.647 22.788 159.647 23.94C159.647 25.068 160.127 25.944 161.087 26.568C162.071 27.168 163.271 27.66 164.687 28.044C166.103 28.428 167.027 28.692 167.459 28.836C167.915 28.98 168.467 29.184 169.115 29.448C169.787 29.688 170.327 29.952 170.735 30.24C171.167 30.504 171.611 30.852 172.067 31.284C172.547 31.692 172.919 32.148 173.183 32.652C173.831 33.804 174.155 35.172 174.155 36.756C174.155 39.348 173.339 41.436 171.707 43.02C170.099 44.58 167.975 45.36 165.335 45.36C163.967 45.36 162.395 45.18 160.619 44.82C158.867 44.46 157.895 44.28 157.703 44.28C157.367 44.28 157.043 44.64 156.731 45.36H156.227L155.867 36.792H156.479C157.535 38.88 158.879 40.704 160.511 42.264C162.167 43.824 163.907 44.604 165.731 44.604ZM195.345 19.8H204.957V20.484H202.977V44.316H204.957V45H193.977V44.316H195.957V21.816H195.813L190.413 45H185.913L179.577 21.708H179.433V44.316H181.413V45H176.517V44.316H178.497V20.484H176.517V19.8H186.237L191.025 38.34L195.345 19.8ZM206.608 19.8H217.372C220.708 19.8 223.204 20.256 224.86 21.168C226.54 22.056 227.38 23.568 227.38 25.704C227.38 28.992 225.4 30.96 221.44 31.608V31.68C226.24 32.28 228.64 34.368 228.64 37.944C228.64 40.56 227.656 42.396 225.688 43.452C223.72 44.484 220.888 45 217.192 45H206.608V44.316H208.948V20.484H206.608V19.8ZM215.968 32.256V44.316H217.66C218.98 44.316 219.904 43.86 220.432 42.948C220.96 42.036 221.224 40.692 221.224 38.916V37.008C221.224 35.424 220.9 34.236 220.252 33.444C219.604 32.652 218.452 32.256 216.796 32.256H215.968ZM215.968 20.484V31.572H216.904C218.152 31.572 219.016 31.2 219.496 30.456C220 29.688 220.252 28.524 220.252 26.964V25.272C220.252 23.496 220.036 22.26 219.604 21.564C219.172 20.844 218.344 20.484 217.12 20.484H215.968ZM241.39 32.256H239.482V44.316H241.822V45H230.122V44.316H232.462V20.484H230.122V19.8H240.994C244.114 19.8 246.322 19.968 247.618 20.304C248.938 20.616 249.862 21 250.39 21.456C251.542 22.392 252.118 23.88 252.118 25.92C252.118 27.96 251.614 29.424 250.606 30.312C249.598 31.176 248.062 31.692 245.998 31.86V31.968C247.942 32.232 249.298 32.808 250.066 33.696C250.834 34.584 251.218 36.072 251.218 38.16V40.068C251.218 41.316 251.278 42.156 251.398 42.588C251.542 43.02 251.83 43.236 252.262 43.236C252.694 43.236 253.03 43.044 253.27 42.66C253.534 42.252 253.774 41.412 253.99 40.14L254.602 40.212C254.338 42.252 253.87 43.62 253.198 44.316C252.55 45.012 251.242 45.36 249.274 45.36C247.306 45.36 245.902 44.904 245.062 43.992C244.246 43.056 243.838 41.316 243.838 38.772V36.144C243.838 34.8 243.658 33.816 243.298 33.192C242.962 32.568 242.326 32.256 241.39 32.256ZM239.482 20.484V31.572H240.634C242.002 31.572 243.01 31.152 243.658 30.312C244.33 29.472 244.666 28.104 244.666 26.208V25.164C244.666 23.268 244.342 22.02 243.694 21.42C243.07 20.796 242.062 20.484 240.67 20.484H239.482ZM270.552 44.316L267.924 36.54H260.796L258.024 44.316H260.724V45H255.216V44.316H256.908L266.088 19.584H269.04L278.112 44.316H279.768V45H267.996V44.316H270.552ZM264.504 26.316L261.12 35.748H267.636L264.504 26.316ZM301.236 20.484V45H296.196L283.848 21.708V44.316H285.828V45H280.896V44.316H282.876V20.484H280.896V19.8H290.832L300.264 37.872V20.484H298.284V19.8H303.216V20.484H301.236ZM329.817 31.968C329.817 36.912 328.425 40.356 325.641 42.3C323.073 44.1 319.545 45 315.057 45H304.869V44.316H307.245V20.484H304.869V19.8H315.993C320.601 19.8 324.057 20.748 326.361 22.644C328.665 24.516 329.817 27.624 329.817 31.968ZM314.265 44.316H315.633C318.057 44.316 319.785 43.464 320.817 41.76C321.873 40.032 322.401 37.152 322.401 33.12V31.032C322.401 25.632 321.369 22.38 319.305 21.276C318.321 20.748 316.929 20.484 315.129 20.484H314.265V44.316Z" fill="#0A0A0A"/>
</g>
<g filter="url(#filter1_d_8_452)">
<path d="M106.71 62.57C106.71 64.63 106.13 66.065 104.97 66.875C103.9 67.625 102.43 68 100.56 68H96.315V67.715H97.305V57.785H96.315V57.5H100.95C102.87 57.5 104.31 57.895 105.27 58.685C106.23 59.465 106.71 60.76 106.71 62.57ZM100.23 67.715H100.8C101.81 67.715 102.53 67.36 102.96 66.65C103.4 65.93 103.62 64.73 103.62 63.05V62.18C103.62 59.93 103.19 58.575 102.33 58.115C101.92 57.895 101.34 57.785 100.59 57.785H100.23V67.715ZM107.638 57.5H115.438L115.588 60.47H115.318C114.898 59.46 114.458 58.77 113.998 58.4C113.538 58.02 112.863 57.83 111.973 57.83H111.448V62.465H111.958C112.428 62.465 112.823 62.29 113.143 61.94C113.463 61.58 113.688 61.1 113.818 60.5H114.043V64.94H113.788C113.608 64.19 113.363 63.655 113.053 63.335C112.753 63.015 112.338 62.855 111.808 62.855H111.448V67.67H112.018C112.938 67.67 113.718 67.395 114.358 66.845C115.008 66.295 115.453 65.59 115.693 64.73H115.993L115.873 68H107.638V67.67H108.523V57.83H107.638V57.5ZM122.153 67.85C122.643 67.85 122.953 67.76 123.083 67.58C123.223 67.4 123.293 67.095 123.293 66.665V63.755H122.333V63.425H126.653V63.755H126.068V67.985H125.843C125.663 67.735 125.408 67.61 125.078 67.61C124.938 67.61 124.518 67.7 123.818 67.88C123.128 68.06 122.538 68.15 122.048 68.15C120.418 68.15 119.153 67.71 118.253 66.83C117.363 65.95 116.918 64.63 116.918 62.87C116.918 61.1 117.383 59.735 118.313 58.775C119.253 57.815 120.513 57.335 122.093 57.335C122.703 57.335 123.313 57.415 123.923 57.575C124.543 57.725 124.903 57.8 125.003 57.8C125.103 57.8 125.178 57.78 125.228 57.74C125.278 57.69 125.333 57.61 125.393 57.5H125.558L125.678 60.755H125.408C124.918 59.785 124.423 59.025 123.923 58.475C123.433 57.915 122.883 57.635 122.273 57.635C120.743 57.635 119.978 59.13 119.978 62.12V63.305C119.978 64.805 120.163 65.94 120.533 66.71C120.913 67.47 121.453 67.85 122.153 67.85ZM127.518 57.5H132.093V57.785H131.268V67.715H132.093V68H127.518V67.715H128.343V57.785H127.518V57.5ZM142.015 57.5L142.165 61.265H141.88C141.44 59.935 141.05 59.03 140.71 58.55C140.37 58.06 139.88 57.815 139.24 57.815H139.06V67.685H140.335V68H134.86V67.685H136.135V57.815H135.94C135.3 57.815 134.805 58.07 134.455 58.58C134.105 59.08 133.72 59.975 133.3 61.265H133.015L133.165 57.5H142.015ZM147.612 67.715L146.517 64.475H143.547L142.392 67.715H143.517V68H141.222V67.715H141.927L145.752 57.41H146.982L150.762 67.715H151.452V68H146.547V67.715H147.612ZM145.092 60.215L143.682 64.145H146.397L145.092 60.215ZM151.862 57.5H157.262V57.83H155.672V67.67H156.212C157.062 67.67 157.737 67.41 158.237 66.89C158.747 66.37 159.262 65.57 159.782 64.49H160.097L159.812 68H151.862V67.67H152.747V57.83H151.862V57.5ZM163.403 57.5H167.813C169.323 57.5 170.448 57.72 171.188 58.16C171.928 58.59 172.298 59.365 172.298 60.485C172.298 61.725 171.848 62.58 170.948 63.05C170.108 63.48 168.933 63.695 167.423 63.695H167.303V67.715H169.178V68H163.403V67.715H164.378V57.785H163.403V57.5ZM167.303 57.785V63.41H167.618C168.218 63.41 168.633 63.205 168.863 62.795C169.093 62.385 169.208 61.72 169.208 60.8V60.08C169.208 59.23 169.098 58.635 168.878 58.295C168.668 57.955 168.278 57.785 167.708 57.785H167.303ZM173 57.5H178.4V57.83H176.81V67.67H177.35C178.2 67.67 178.875 67.41 179.375 66.89C179.885 66.37 180.4 65.57 180.92 64.49H181.235L180.95 68H173V67.67H173.885V57.83H173V57.5ZM188.1 67.715L187.005 64.475H184.035L182.88 67.715H184.005V68H181.71V67.715H182.415L186.24 57.41H187.47L191.25 67.715H191.94V68H187.035V67.715H188.1ZM185.58 60.215L184.17 64.145H186.885L185.58 60.215ZM200.081 57.5L200.231 61.265H199.946C199.506 59.935 199.116 59.03 198.776 58.55C198.436 58.06 197.946 57.815 197.306 57.815H197.126V67.685H198.401V68H192.926V67.685H194.201V57.815H194.006C193.366 57.815 192.871 58.07 192.521 58.58C192.171 59.08 191.786 59.975 191.366 61.265H191.081L191.231 57.5H200.081ZM201.095 57.5H208.895L209.045 60.62H208.775C208.405 59.54 207.975 58.805 207.485 58.415C207.005 58.025 206.285 57.83 205.325 57.83H204.905V62.705H205.58C206.06 62.705 206.46 62.53 206.78 62.18C207.1 61.83 207.32 61.35 207.44 60.74H207.665V65.18H207.41C207.25 64.43 207.025 63.895 206.735 63.575C206.455 63.255 206.07 63.095 205.58 63.095H204.905V67.67H206.765V68H201.095V67.67H201.98V57.83H201.095V57.5ZM216.572 63.365V62.255C216.572 60.425 216.482 59.27 216.302 58.79C216.102 58.24 215.817 57.9 215.447 57.77C215.237 57.69 214.982 57.65 214.682 57.65C214.382 57.65 214.122 57.69 213.902 57.77C213.692 57.85 213.517 57.99 213.377 58.19C213.237 58.39 213.122 58.6 213.032 58.82C212.952 59.04 212.887 59.35 212.837 59.75C212.777 60.33 212.747 61.185 212.747 62.315V63.395C212.747 64.615 212.792 65.485 212.882 66.005C212.982 66.515 213.102 66.88 213.242 67.1C213.552 67.59 214.032 67.835 214.682 67.835C215.472 67.835 215.982 67.505 216.212 66.845C216.452 66.175 216.572 65.015 216.572 63.365ZM214.652 68.15C212.982 68.15 211.732 67.7 210.902 66.8C210.082 65.89 209.672 64.58 209.672 62.87C209.672 61.15 210.112 59.8 210.992 58.82C211.882 57.83 213.137 57.335 214.757 57.335C216.377 57.335 217.597 57.805 218.417 58.745C219.247 59.675 219.662 61 219.662 62.72C219.662 64.44 219.242 65.775 218.402 66.725C217.572 67.675 216.322 68.15 214.652 68.15ZM225.197 62.69H224.402V67.715H225.377V68H220.502V67.715H221.477V57.785H220.502V57.5H225.032C226.332 57.5 227.252 57.57 227.792 57.71C228.342 57.84 228.727 58 228.947 58.19C229.427 58.58 229.667 59.2 229.667 60.05C229.667 60.9 229.457 61.51 229.037 61.88C228.617 62.24 227.977 62.455 227.117 62.525V62.57C227.927 62.68 228.492 62.92 228.812 63.29C229.132 63.66 229.292 64.28 229.292 65.15V65.945C229.292 66.465 229.317 66.815 229.367 66.995C229.427 67.175 229.547 67.265 229.727 67.265C229.907 67.265 230.047 67.185 230.147 67.025C230.257 66.855 230.357 66.505 230.447 65.975L230.702 66.005C230.592 66.855 230.397 67.425 230.117 67.715C229.847 68.005 229.302 68.15 228.482 68.15C227.662 68.15 227.077 67.96 226.727 67.58C226.387 67.19 226.217 66.465 226.217 65.405V64.31C226.217 63.75 226.142 63.34 225.992 63.08C225.852 62.82 225.587 62.69 225.197 62.69ZM224.402 57.785V62.405H224.882C225.452 62.405 225.872 62.23 226.142 61.88C226.422 61.53 226.562 60.96 226.562 60.17V59.735C226.562 58.945 226.427 58.425 226.157 58.175C225.897 57.915 225.477 57.785 224.897 57.785H224.402ZM239.235 57.5H243.24V57.785H242.415V67.715H243.24V68H238.665V67.715H239.49V58.34H239.43L237.18 68H235.305L232.665 58.295H232.605V67.715H233.43V68H231.39V67.715H232.215V57.785H231.39V57.5H235.44L237.435 65.225L239.235 57.5Z" fill="black"/>
</g>
<rect x="0.5" y="0.5" width="81" height="81" rx="40.5" stroke="black" stroke-opacity="0.24"/>
<path d="M19.0145 35.5058C17.4292 34.8292 17.3851 32.5981 18.9424 31.8594L39.0435 22.3232C39.5544 22.0808 40.1441 22.066 40.6665 22.2825L61.2 30.7936C61.912 31.0887 62.3911 31.7668 62.4314 32.5365L63.0739 44.7969C63.1057 45.4036 62.86 45.9919 62.4061 46.3958L61.8249 46.9128C61.1742 47.4917 60.2237 47.583 59.4747 47.1385L58.5522 46.591C57.9772 46.2497 57.6108 45.6435 57.5758 44.9757L57.2755 39.2464C57.1982 37.7723 55.6054 36.8869 54.3127 37.5995L41.9036 44.4402C41.3647 44.7373 40.7189 44.7697 40.1529 44.5282L19.0145 35.5058Z" fill="white"/>
<path d="M38.8292 21.8714L18.728 31.4076C16.7815 32.3311 16.8367 35.1199 18.8182 35.9656L39.9567 44.988C40.6642 45.29 41.4713 45.2494 42.145 44.8781L54.5541 38.0374C55.5236 37.5029 56.7182 38.1669 56.7762 39.2725L57.0765 45.0019C57.1202 45.8367 57.5782 46.5943 58.297 47.0209L59.2195 47.5685C60.1558 48.1241 61.3439 48.01 62.1573 47.2864L62.7385 46.7693C63.3058 46.2645 63.613 45.5291 63.5733 44.7707L62.9307 32.5103C62.8803 31.5482 62.2815 30.7006 61.3914 30.3317L40.858 21.8207C40.205 21.55 39.4678 21.5684 38.8292 21.8714Z" stroke="black" stroke-opacity="0.24"/>
<path d="M26.5 46.3464C26.5 46.0958 26.7398 45.9149 26.9808 45.9837L37.4832 48.9844C39.4549 49.5478 41.5451 49.5478 43.5168 48.9844L54.0192 45.9837C54.2602 45.9149 54.5 46.0958 54.5 46.3464V46.3464V52.8464V52.8464C54.5 54.0218 53.7 55.0464 52.5597 55.3314L44.5018 57.3459C41.8744 58.0028 39.1256 58.0028 36.4982 57.3459L28.4403 55.3314C27.3 55.0464 26.5 54.0218 26.5 52.8464V52.8464V46.3464V46.3464Z" fill="white"/>
<path d="M37.6205 48.5037L27.1181 45.503C26.5578 45.3429 26 45.7636 26 46.3464V52.8464C26 54.2512 26.9561 55.4758 28.319 55.8165L36.3769 57.831C39.084 58.5078 41.916 58.5078 44.6231 57.831L52.681 55.8165C54.0439 55.4758 55 54.2512 55 52.8464V46.3464C55 45.7636 54.4422 45.3429 53.8819 45.503L43.3795 48.5037C41.4975 49.0414 39.5025 49.0414 37.6205 48.5037Z" stroke="black" stroke-opacity="0.24"/>
<defs>
<filter id="filter0_d_8_452" x="89.756" y="19.404" width="244.061" height="33.956" filterUnits="userSpaceOnUse" color-interpolation-filters="sRGB">
<feFlood flood-opacity="0" result="BackgroundImageFix"/>
<feColorMatrix in="SourceAlpha" type="matrix" values="0 0 0 0 0 0 0 0 0 0 0 0 0 0 0 0 0 0 127 0" result="hardAlpha"/>
<feOffset dy="4"/>
<feGaussianBlur stdDeviation="2"/>
<feComposite in2="hardAlpha" operator="out"/>
<feColorMatrix type="matrix" values="0 0 0 0 0 0 0 0 0 0 0 0 0 0 0 0 0 0 0.25 0"/>
<feBlend mode="normal" in2="BackgroundImageFix" result="effect1_dropShadow_8_452"/>
<feBlend mode="normal" in="SourceGraphic" in2="effect1_dropShadow_8_452" result="shape"/>
</filter>
<filter id="filter1_d_8_452" x="92.315" y="57.335" width="154.925" height="18.815" filterUnits="userSpaceOnUse" color-interpolation-filters="sRGB">
<feFlood flood-opacity="0" result="BackgroundImageFix"/>
<feColorMatrix in="SourceAlpha" type="matrix" values="0 0 0 0 0 0 0 0 0 0 0 0 0 0 0 0 0 0 127 0" result="hardAlpha"/>
<feOffset dy="4"/>
<feGaussianBlur stdDeviation="2"/>
<feComposite in2="hardAlpha" operator="out"/>
<feColorMatrix type="matrix" values="0 0 0 0 0 0 0 0 0 0 0 0 0 0 0 0 0 0 0.25 0"/>
<feBlend mode="normal" in2="BackgroundImageFix" result="effect1_dropShadow_8_452"/>
<feBlend mode="normal" in="SourceGraphic" in2="effect1_dropShadow_8_452" result="shape"/>
</filter>
</defs>
</svg>
